# xmcd
#
# Track frame offsets: 
#        150
#        24447
#        48052
#        72014
#        94550
#        109834
#        122805
#
# Disc length: 1921 seconds
#
# Revision: 0
# Processed by: cddbd v1.5.2PL0 Copyright (c) Steve Scherf et al.
# Submitted via: ExactAudioCopyFreeDBPlugin 1.0
#
DISCID=4e077f07
DTITLE=Faze-O - Riding High
DYEAR=1977
DGENRE=Funk
TTITLE0=Riding High
TTITLE1=Funky Reputation
TTITLE2=You And I (Belong Together)
TTITLE3=Toejam
TTITLE4=True Love
TTITLE5=Get Some Booty
TTITLE6=Test - This Is Faze-O
EXTD=
EXTT0=
EXTT1=
EXTT2=
EXTT3=
EXTT4=
EXTT5=
EXTT6=
PLAYORDER=
